
<svg width="16" height="14" viewBox="0 0 16 14" fill="none" xmlns="http://www.w3.org/2000/svg">
<path d="M15.354 6.646C15.4005 6.69245 15.4375 6.74762 15.4627 6.80837C15.4879 6.86911 15.5009 6.93423 15.5009 7C15.5009 7.06577 15.4879 7.13089 15.4627 7.19163C15.4375 7.25238 15.4005 7.30756 15.354 7.354L11.854 10.854C11.8075 10.9005 11.7523 10.9374 11.6916 10.9625C11.6308 10.9877 11.5657 11.0006 11.5 11.0006C11.4342 11.0006 11.3691 10.9877 11.3084 10.9625C11.2477 10.9374 11.1925 10.9005 11.146 10.854C11.0995 10.8075 11.0626 10.7523 11.0375 10.6916C11.0123 10.6308 10.9993 10.5657 10.9993 10.5C10.9993 10.4343 11.0123 10.3692 11.0375 10.3084C11.0626 10.2477 11.0995 10.1925 11.146 10.146L15.354 6.646ZM15.354 6.646L11.854 3.146L15.354 6.646ZM9.64145 0.389762L9.64146 0.389745C9.65594 0.342663 9.67955 0.298894 9.71094 0.260937C9.74234 0.22298 9.7809 0.191578 9.82443 0.168525C9.86796 0.145471 9.9156 0.131217 9.96464 0.126577C10.0137 0.121936 10.0632 0.127 10.1102 0.141479C10.1573 0.155958 10.2011 0.179569 10.239 0.210964C10.277 0.242358 10.3084 0.280921 10.3315 0.324451C10.3545 0.367981 10.3688 0.415625 10.3734 0.464665C10.378 0.513704 10.373 0.563177 10.3585 0.610258L6.35851 13.6102L6.3585 13.6103C6.32926 13.7053 6.26344 13.7849 6.17553 13.8315C6.08762 13.878 5.98481 13.8878 5.88972 13.8585C5.79463 13.8293 5.71506 13.7635 5.6685 13.6756C5.62195 13.5876 5.61222 13.4848 5.64145 13.3898C5.64145 13.3898 5.64145 13.3898 5.64146 13.3897L9.64145 0.389762ZM4.7657 3.7655L4.7656 3.7656L1.6186 6.9116L1.53017 7L1.6186 7.0884L4.76559 10.2344C4.76559 10.2344 4.7656 10.2344 4.7656 10.2344C4.83604 10.3048 4.87561 10.4004 4.87561 10.5C4.87561 10.5996 4.83603 10.6952 4.76559 10.7656C4.69515 10.8361 4.5996 10.8756 4.49998 10.8756C4.40035 10.8756 4.30481 10.8361 4.23437 10.7656L0.734367 7.26561L0.734255 7.2655C0.699333 7.23067 0.671625 7.18929 0.65272 7.14373C0.633816 7.09817 0.624084 7.04933 0.624084 7C0.624084 6.95068 0.633816 6.90183 0.65272 6.85628C0.671625 6.81072 0.699332 6.76934 0.734255 6.7345L0.734367 6.73439L4.23437 3.23439L4.23448 3.23428C4.26931 3.19936 4.31069 3.17165 4.35625 3.15274C4.40181 3.13384 4.45065 3.12411 4.49998 3.12411C4.5493 3.12411 4.59814 3.13384 4.6437 3.15274C4.68926 3.17165 4.73064 3.19936 4.76548 3.23428L4.85398 3.146L4.7657 3.2345C4.80062 3.26934 4.82833 3.31072 4.84724 3.35628C4.86614 3.40183 4.87587 3.45068 4.87587 3.5C4.87587 3.54933 4.86614 3.59817 4.84724 3.64373C4.82833 3.68929 4.80062 3.73067 4.7657 3.7655ZM11.2344 3.7656L11.2343 3.7655C11.1993 3.73067 11.1716 3.68929 11.1527 3.64373C11.1338 3.59817 11.1241 3.54933 11.1241 3.5C11.1241 3.45068 11.1338 3.40183 11.1527 3.35628C11.1716 3.31072 11.1993 3.26934 11.2343 3.2345L11.146 3.146L11.2345 3.23428C11.2693 3.19936 11.3107 3.17165 11.3563 3.15274C11.4018 3.13384 11.4507 3.12411 11.5 3.12411C11.5493 3.12411 11.5981 3.13384 11.6437 3.15274C11.6893 3.17165 11.7306 3.19936 11.7655 3.23428L11.7656 3.23439L15.2656 6.73439L15.2657 6.7345C15.3006 6.76934 15.3283 6.81072 15.3472 6.85628C15.3661 6.90183 15.3759 6.95068 15.3759 7C15.3759 7.04933 15.3661 7.09817 15.3472 7.14373C15.3283 7.18929 15.3006 7.23067 15.2657 7.2655L15.2656 7.26561L11.7656 10.7656C11.7307 10.8005 11.6893 10.8282 11.6437 10.847C11.5982 10.8659 11.5493 10.8756 11.5 10.8756C11.4506 10.8756 11.4018 10.8659 11.3562 10.847C11.3107 10.8282 11.2692 10.8005 11.2344 10.7656C11.1995 10.7307 11.1718 10.6893 11.1529 10.6438C11.1341 10.5982 11.1243 10.5493 11.1243 10.5C11.1243 10.4507 11.1341 10.4018 11.1529 10.3563C11.1718 10.3107 11.1995 10.2693 11.2344 10.2344C11.2344 10.2344 11.2344 10.2344 11.2344 10.2344L14.3814 7.0884L14.4698 7L14.3814 6.9116L11.2344 3.7656Z" stroke="black" stroke-width="0.25"/>
</svg>
